<?xml version="1.0" encoding="UTF-8" standalone="no"?>
<svg
   height="16"
   viewBox="0 0 16 16"
   width="16"
   version="1.1"
   id="svg1"
   sodipodi:docname="purple-q.svg"
   inkscape:version="1.3.2 (091e20e, 2023-11-25)"
   xmlns:inkscape="http://www.inkscape.org/namespaces/inkscape"
   xmlns:sodipodi="http://sodipodi.sourceforge.net/DTD/sodipodi-0.dtd"
   xmlns="http://www.w3.org/2000/svg"
   xmlns:svg="http://www.w3.org/2000/svg">
  <defs
     id="defs1" />
  <sodipodi:namedview
     id="namedview1"
     pagecolor="#ffffff"
     bordercolor="#000000"
     borderopacity="0.25"
     inkscape:showpageshadow="2"
     inkscape:pageopacity="0.0"
     inkscape:pagecheckerboard="0"
     inkscape:deskcolor="#d1d1d1"
     inkscape:zoom="17.920737"
     inkscape:cx="10.183733"
     inkscape:cy="18.80503"
     inkscape:window-width="1280"
     inkscape:window-height="747"
     inkscape:window-x="0"
     inkscape:window-y="305"
     inkscape:window-maximized="0"
     inkscape:current-layer="svg1" />
  <path
     d="m13.688 21.906q-2.969 0-4.656-2.438t-1.688-6.703q0-4.313 1.727-6.75t4.711-2.438q3.203 0 4.828 2.5h.125l.453-2.188h5.281v25.391h-6.109v-7.328q0-.531.188-2.594h-.188q-1.5 2.547-4.672 2.547zm2.484-4.734q1.391 0 2.023-.859t.633-2.906v-.734q0-2.344-.641-3.352t-2.109-1.008q-2.531 0-2.531 4.547 0 2.313.641 3.313t1.984 1z"
     id="path1" />
  <path
     style="fill:#4b32c3;stroke-width:0.0558013;fill-opacity:1"
     d="m 18.387257,25.431431 c 5.55e-4,-2.872589 0.02084,-4.041542 0.08256,-4.757059 0.111695,-1.294985 0.11032,-1.367131 -0.02606,-1.367131 -0.06533,0 -0.144502,0.06639 -0.194523,0.163123 -0.15813,0.305788 -0.742521,0.980143 -1.100299,1.269683 -0.99933,0.80873 -2.289206,1.191085 -3.77214,1.118167 C 10.038467,21.694064 7.8814254,18.992347 7.4438073,14.427092 7.3579894,13.531835 7.4092417,11.10199 7.5303691,10.323236 7.819154,8.4665775 8.3670242,7.0254113 9.2121384,5.8993613 10.381126,4.3417751 11.841888,3.6237484 13.83093,3.6290297 c 0.849033,0.00225 1.379822,0.084749 2.065101,0.3209539 0.925469,0.3189957 1.841822,0.9916069 2.41563,1.7730948 0.155636,0.2119653 0.305131,0.3592606 0.364628,0.3592606 0.05546,0 0.10084,-0.010894 0.10084,-0.024208 0,-0.04509 0.394862,-1.9560307 0.424503,-2.0543893 0.02748,-0.091197 0.202549,-0.097652 2.648328,-0.097652 h 2.618899 V 16.572979 29.239868 H 21.42769 18.38652 Z M 16.98071,17.101737 c 0.946722,-0.215328 1.414685,-0.750158 1.729643,-1.976794 0.141949,-0.55283 0.138078,-3.723588 -0.0054,-4.428409 C 18.449973,9.4440377 18.008141,8.8008538 17.168698,8.4601854 16.784482,8.3042601 15.765725,8.268313 15.358754,8.3963211 c -1.210889,0.3808714 -1.827235,1.8838839 -1.826787,4.4547809 3.12e-4,1.797724 0.277768,2.981574 0.853587,3.64209 0.215331,0.247004 0.733754,0.550724 1.077969,0.631533 0.345281,0.08106 1.110723,0.06946 1.517187,-0.02299 z"
     id="path2" />
</svg>
